Coordinates
version=1
nRows=16
nColumns=63
inDegrees=yes

Units are S.I. units (second, meters, Newtons, ...)
If the header above contains a line with 'inDegrees', this indicates whether rotational values are in degrees (yes) or radians (no).

endheader
time	pelvis_tilt	pelvis_list	pelvis_rotation	pelvis_tx	pelvis_ty	pelvis_tz	hip_flexion_r	hip_adduction_r	hip_rotation_r	knee_angle_r	knee_angle_r_beta	ankle_angle_r	subtalar_angle_r	mtp_angle_r	hip_flexion_l	hip_adduction_l	hip_rotation_l	knee_angle_l	knee_angle_l_beta	ankle_angle_l	subtalar_angle_l	mtp_angle_l	L5_S1_Flex_Ext	L5_S1_Lat_Bending	L5_S1_axial_rotation	L4_L5_Flex_Ext	L4_L5_Lat_Bending	L4_L5_axial_rotation	L3_L4_Flex_Ext	L3_L4_Lat_Bending	L3_L4_axial_rotation	L2_L3_Flex_Ext	L2_L3_Lat_Bending	L2_L3_axial_rotation	L1_L2_Flex_Ext	L1_L2_Lat_Bending	L1_L2_axial_rotation	L1_T12_Flex_Ext	L1_T12_Lat_Bending	L1_T12_axial_rotation	Abs_r3	Abs_r2	Abs_r1	Abs_t1	Abs_t2	neck_flexion	neck_bending	neck_rotation	arm_flex_r	arm_add_r	arm_rot_r	elbow_flex_r	pro_sup_r	wrist_flex_r	wrist_dev_r	arm_flex_l	arm_add_l	arm_rot_l	elbow_flex_l	pro_sup_l	wrist_flex_l	wrist_dev_l
2.762712	7.710709	-4.341670	97.032623	0.281523	0.822719	0.418887	-7.240091	9.620213	7.016346	4.063769	0.070926	24.784620	-13.876722	0.000000	-4.913569	-10.666660	-0.073743	12.074139	0.210733	37.548860	2.339472	0.000000	-0.415163	0.701518	-1.700831	-0.771000	0.933018	-1.807133	-0.682072	1.705670	-1.807133	-0.474490	1.705670	-1.488227	-0.385521	1.430535	-1.381925	-0.237224	1.086651	-1.275623	-2.965469	7.935707	-9.459510	0.000000	0.000000	25.923257	9.689889	-10.306398	-22.067373	-21.976341	23.495033	36.999478	75.769978	-4.759393	0.271616	4.737050	-10.354872	146.294168	3.410032	9.497729	-14.527041	-9.104181
2.779661	7.646028	-4.490239	96.926431	0.282036	0.822497	0.419259	-6.894504	9.572024	6.867415	4.507385	0.078669	24.911097	-13.916247	0.000000	-4.700927	-10.587676	-0.057116	12.165718	0.212332	37.596287	2.121964	0.000000	-0.417788	0.681946	-1.697334	-0.775875	0.906989	-1.803417	-0.686385	1.658084	-1.803417	-0.477490	1.658084	-1.485167	-0.387958	1.390625	-1.379084	-0.238724	1.056335	-1.273000	-2.984221	7.714313	-9.440060	0.000000	0.000000	26.123018	10.079429	-11.259121	-21.756055	-22.037888	22.636516	37.443632	76.550436	-4.398236	0.958125	4.873442	-11.014539	145.547570	3.400456	8.601479	-13.385641	-8.812855
2.796610	7.578838	-4.679964	96.812646	0.282479	0.822210	0.419622	-6.496298	9.508814	6.725549	4.963410	0.086628	25.088651	-13.921509	0.000000	-4.496975	-10.496830	-0.119647	12.146574	0.211998	37.622314	2.016894	0.000000	-0.416609	0.659876	-1.698593	-0.773685	0.877635	-1.804755	-0.684448	1.604423	-1.804755	-0.476143	1.604423	-1.486269	-0.386863	1.345620	-1.380107	-0.238051	1.022148	-1.273945	-2.975799	7.464652	-9.447064	0.000000	0.000000	26.314403	10.594251	-12.102379	-21.360527	-22.258825	21.829434	37.875184	77.721311	-4.020093	1.756752	5.039891	-11.868279	144.029093	3.475383	7.548962	-12.082024	-8.552964
2.813559	7.529665	-4.917061	96.687197	0.282843	0.821860	0.420019	-6.041331	9.449471	6.572282	5.410781	0.094436	25.305390	-13.869900	0.000000	-4.281236	-10.414929	-0.270880	12.036790	0.210082	37.642848	2.004284	0.000000	-0.411584	0.639236	-1.709517	-0.764352	0.850184	-1.816361	-0.676191	1.554238	-1.816361	-0.470399	1.554238	-1.495827	-0.382197	1.303530	-1.388982	-0.235179	0.990177	-1.282137	-2.939901	7.231165	-9.507818	0.000000	0.000000	26.501794	11.212849	-12.766836	-20.889758	-22.629669	21.075996	38.281072	79.153273	-3.651992	2.566320	5.220585	-12.867736	142.034976	3.603552	6.621813	-10.845286	-8.419881
2.830508	7.502751	-5.198626	96.569222	0.283126	0.821458	0.420480	-5.526730	9.400157	6.414356	5.853029	0.102155	25.557445	-13.775898	0.000000	-4.044509	-10.350115	-0.484550	11.846623	0.206763	37.657901	2.079283	0.000000	-0.402189	0.621881	-1.724584	-0.746904	0.827102	-1.832370	-0.660755	1.512042	-1.832370	-0.459661	1.512042	-1.509011	-0.373472	1.268140	-1.401224	-0.229811	0.963294	-1.293438	-2.872792	7.034843	-9.591616	0.000000	0.000000	26.687278	11.878367	-13.241046	-20.417743	-23.075774	20.270430	38.637277	80.687128	-3.291498	3.264779	5.443389	-13.938995	140.343696	3.705532	6.115966	-9.963974	-8.187453
2.847458	7.505452	-5.516377	96.481108	0.283274	0.821007	0.421083	-4.958331	9.366566	6.227987	6.279715	0.109602	25.844407	-13.629150	0.000000	-3.767679	-10.312215	-0.744810	11.611828	0.202665	37.689968	2.255777	0.000000	-0.390161	0.610992	-1.746442	-0.724569	0.812620	-1.855594	-0.640996	1.485567	-1.855594	-0.445915	1.485567	-1.528136	-0.362304	1.245936	-1.418984	-0.222938	0.946427	-1.309831	-2.786883	6.911669	-9.713185	0.000000	0.000000	26.870509	12.536382	-13.465818	-19.959488	-23.576345	19.430243	38.943169	82.275937	-3.047563	3.754243	5.699247	-15.031277	139.044511	3.782172	6.156152	-9.430408	-7.943599
2.864407	7.536418	-5.855910	96.443489	0.283245	0.820526	0.421859	-4.348982	9.347572	6.004596	6.690208	0.116766	26.162288	-13.439087	0.000000	-3.450954	-10.299373	-1.012357	11.351812	0.198126	37.737515	2.509386	0.000000	-0.376751	0.607703	-1.771654	-0.699663	0.808245	-1.882382	-0.618963	1.477569	-1.882382	-0.430588	1.477569	-1.550197	-0.349851	1.239228	-1.439469	-0.215275	0.941332	-1.328741	-2.691091	6.874456	-9.853409	0.000000	0.000000	27.040906	13.084549	-13.498318	-19.526394	-24.082168	18.520418	39.158287	83.779186	-2.906382	4.036693	6.002600	-16.099778	138.182578	3.885620	6.667651	-9.175652	-7.635878
2.881356	7.578319	-6.204683	96.479526	0.283062	0.820022	0.422815	-3.722012	9.331487	5.737366	7.064701	0.123302	26.500211	-13.233438	0.000000	-3.087550	-10.289578	-1.144133	11.102929	0.193783	37.786738	2.694380	0.000000	-0.363111	0.609334	-1.804532	-0.674334	0.810414	-1.917315	-0.596555	1.481534	-1.917315	-0.415000	1.481534	-1.578965	-0.337185	1.242554	-1.466182	-0.207482	0.943858	-1.353399	-2.593667	6.892906	-10.036265	0.000000	0.000000	27.187398	13.533988	-13.322048	-19.074936	-24.585520	17.714083	39.234547	85.057106	-2.951111	4.098341	6.333619	-17.132324	137.794948	4.006351	7.570224	-9.029107	-7.267475
2.898305	7.637379	-6.551245	96.612131	0.282716	0.819486	0.423950	-3.097901	9.325925	5.420333	7.383428	0.128865	26.860300	-13.012108	0.000000	-2.674911	-10.298436	-1.198143	10.885521	0.189988	37.853312	2.926203	0.000000	-0.350093	0.616530	-1.843530	-0.650158	0.819985	-1.958750	-0.575168	1.499031	-1.958750	-0.400122	1.499031	-1.613089	-0.325097	1.257228	-1.497868	-0.200043	0.955005	-1.382647	-2.500681	6.974309	-10.253160	0.000000	0.000000	27.316170	13.850346	-12.989674	-18.616408	-25.060993	16.889124	39.142388	86.207174	-3.084903	4.023151	6.701212	-18.116824	137.697939	4.163401	8.917394	-9.011873	-6.828873
2.915254	7.701840	-6.897884	96.879003	0.282175	0.818912	0.425270	-2.475016	9.321489	5.015424	7.646778	0.133461	27.223088	-12.799077	0.000000	-2.198835	-10.308331	-1.077796	10.705312	0.186843	37.914823	3.119301	0.000000	-0.336848	0.627689	-1.900491	-0.625560	0.834826	-2.019272	-0.553408	1.526163	-2.019272	-0.384984	1.526163	-1.662930	-0.312797	1.279984	-1.544149	-0.192475	0.972290	-1.425368	-2.406072	7.100544	-10.569961	0.000000	0.000000	27.427351	14.073998	-12.453487	-18.081676	-25.518009	16.321771	38.820199	87.029318	-3.322726	3.824386	7.081842	-19.049272	137.876230	4.309039	10.602782	-9.128251	-6.337762
2.932203	7.778534	-7.245817	97.248501	0.281494	0.818274	0.426714	-1.860594	9.323701	4.548215	7.849254	0.136995	27.596935	-12.577162	0.000000	-1.674263	-10.327489	-0.821328	10.552756	0.184180	37.968628	3.279347	0.000000	-0.321812	0.643665	-1.968424	-0.597637	0.856075	-2.091451	-0.528705	1.565008	-2.091451	-0.367799	1.565008	-1.722371	-0.298835	1.312563	-1.599345	-0.183883	0.997038	-1.476318	-2.298670	7.281272	-10.947785	0.000000	0.000000	27.536266	14.162015	-11.754771	-17.645356	-25.966786	14.929850	38.390740	88.511471	-3.436262	3.798000	7.490211	-19.913450	138.384203	4.405225	12.725546	-9.472823	-5.788582
2.949153	7.861435	-7.588236	97.704001	0.280727	0.817600	0.428263	-1.259248	9.331911	4.048446	8.005170	0.139717	27.957372	-12.387300	0.000000	-1.115584	-10.357747	-0.515026	10.425940	0.181967	38.031645	3.479652	0.000000	-0.305425	0.662543	-2.053121	-0.567204	0.881182	-2.181441	-0.501782	1.610908	-2.181441	-0.349070	1.610908	-1.796481	-0.283617	1.351058	-1.668161	-0.174520	1.026279	-1.539841	-2.181618	7.494821	-11.418844	0.000000	0.000000	27.649816	14.196337	-10.876402	-16.973872	-26.430936	14.695804	37.647447	88.899065	-3.625940	3.576730	7.912235	-20.698800	140.017805	4.361423	15.042485	-10.114149	-4.986990
2.966102	7.952015	-7.903474	98.199553	0.279881	0.816897	0.429868	-0.703557	9.347809	3.512511	8.109637	0.141540	28.315670	-12.177580	0.000000	-0.566548	-10.398766	-0.168565	10.314821	0.180028	38.104772	3.673138	0.000000	-0.289236	0.685382	-2.152000	-0.537140	0.911558	-2.286500	-0.475186	1.666437	-2.286500	-0.330568	1.666437	-1.883000	-0.268584	1.397631	-1.748500	-0.165269	1.061656	-1.614000	-2.065983	7.753176	-11.968779	0.000000	0.000000	27.761898	14.139159	-9.860598	-16.157477	-27.222489	11.050154	37.392735	92.024568	-4.109290	3.630697	8.345040	-21.387364	142.572067	4.202610	18.285944	-11.100242	-3.851072
2.983051	8.025251	-8.189608	98.705065	0.279062	0.816195	0.431421	-0.203489	9.354412	3.002724	8.178212	0.142737	28.654620	-12.012877	0.000000	-0.054134	-10.430757	0.161800	10.206433	0.178136	38.176455	3.881061	0.000000	-0.271069	0.706185	-2.254971	-0.503402	0.939226	-2.395906	-0.445339	1.717019	-2.395906	-0.309805	1.717019	-1.973099	-0.251715	1.440053	-1.832164	-0.154889	1.093881	-1.691228	-1.936217	7.988509	-12.541471	0.000000	0.000000	27.866584	14.006233	-8.832543	-15.060995	-27.777258	11.165933	36.362760	92.486697	-4.459643	3.288017	8.813699	-21.965968	146.635583	3.951811	22.374093	-12.338829	-2.303136
3.000000	8.070749	-8.420892	99.188133	0.278316	0.815513	0.432842	0.186365	9.345294	2.556599	8.173221	0.142650	28.963792	-11.886050	0.000000	0.380271	-10.446107	0.476697	10.104934	0.176364	38.251271	4.078337	0.000000	-0.252928	0.722892	-2.358136	-0.469713	0.961447	-2.505520	-0.415536	1.757640	-2.505520	-0.289072	1.757640	-2.063369	-0.234869	1.474122	-1.915986	-0.144523	1.119760	-1.768602	-1.806641	8.177501	-13.115245	0.000000	0.000000	27.940504	13.794781	-7.821845	-13.733863	-28.102331	14.847819	34.653737	90.568014	-4.746542	2.631612	9.289978	-22.410545	152.225538	3.617352	27.317298	-13.852264	-0.478156
3.016949	8.087364	-8.586799	99.607644	0.277703	0.814854	0.434022	0.484309	9.323424	2.189358	8.184840	0.142852	29.264948	-11.799655	0.000000	0.694134	-10.444749	0.720853	9.984116	0.174256	38.340263	4.271845	0.000000	-0.234743	0.733671	-2.451324	-0.435942	0.975783	-2.604532	-0.385660	1.783848	-2.604532	-0.268288	1.783848	-2.144908	-0.217983	1.496102	-1.991701	-0.134132	1.136457	-1.838493	-1.676747	8.299436	-13.633528	0.000000	0.000000	28.002882	13.469336	-6.992274	-12.260892	-28.176012	21.733605	32.391925	87.125464	-5.090809	1.710003	9.736628	-22.718825	158.769907	3.175789	32.557301	-15.255252	1.435831
